<?xml version="1.0" encoding="UTF-8" standalone="no"?>
<!-- Created with Inkscape (http://www.inkscape.org/) -->

<svg
   width="311.79797"
   height="311.79797"
   id="svg2"
   version="1.1"
   xmlns="http://www.w3.org/2000/svg"
   xmlns:svg="http://www.w3.org/2000/svg"
   xmlns:rdf="http://www.w3.org/1999/02/22-rdf-syntax-ns#"
   xmlns:cc="http://creativecommons.org/ns#"
   xmlns:dc="http://purl.org/dc/elements/1.1/">
  <defs
     id="defs4" />
  <metadata
     id="metadata7">
    <rdf:RDF>
      <cc:Work
         rdf:about="">
        <dc:format>image/svg+xml</dc:format>
        <dc:type
           rdf:resource="http://purl.org/dc/dcmitype/StillImage" />
        <dc:title />
      </cc:Work>
    </rdf:RDF>
  </metadata>
  <g
     id="layer1"
     transform="translate(-328.2846,-365.15254)">
    <path
       style="fill:#224455;fill-opacity:1;stroke:none"
       d="m 378.79217,370.84593 c -22.44545,23.55528 -8.61786,45.38741 -8.61786,45.38741 l 46.62485,64.4793 38.97926,37.52086 c -21.50201,25.72704 -44.15432,54.64613 -65.29689,84.07941 l -44.61402,-29.89736 c 0,0 -8.11496,-5.11336 -14.341,0.95018 -6.22604,6.06353 -1.5689,13.54551 -1.5689,13.54551 l 37.56505,48.5252 c -1.51911,2.27607 -4.50781,6.80591 -4.50781,6.80591 0,0 4.50775,-3.0108 6.78381,-4.52991 l 48.5252,37.56505 c 0,0 7.48198,4.65715 13.54552,-1.56889 6.06353,-6.22604 0.95017,-14.34101 0.95017,-14.34101 l -29.89736,-44.61402 c 29.43329,-21.14257 58.35237,-43.79488 84.07942,-65.29689 l 37.52085,38.97926 64.4793,46.62485 c 0,0 21.83214,13.82759 45.38742,-8.61786 11.65036,-11.10144 1.81196,-26.82586 1.81196,-26.82586 L 580.31761,530.74045 546.61955,496.2027 c 2.75468,-2.68411 5.35567,-5.27852 7.82237,-7.77818 22.45064,-22.27386 26.78664,-24.43753 21.74353,-30.75914 -1.37454,-1.72301 -7.88157,-8.41403 -11.20322,-11.82194 l 5.10443,-5.23701 c 1.60937,-1.76563 -1.12696,-4.30893 -1.12696,-4.30893 0,0 -2.56539,-2.75843 -4.33102,-1.14905 l -5.23701,5.10443 c -3.40792,-3.32165 -10.09894,-9.82868 -11.82195,-11.20323 -6.32161,-5.0431 -8.48528,-0.7071 -30.75914,21.74354 -2.49965,2.4667 -5.09406,5.06768 -7.77818,7.82236 L 474.49466,424.9175 405.61804,369.03396 c 0,0 -15.72443,-9.8384 -26.82587,1.81197 z"
       id="path3066" />
  </g>
</svg>
